<svg width="127" height="30" viewBox="0 0 127 30" fill="none" xmlns="http://www.w3.org/2000/svg">
<g id="stokr 1" clip-path="url(#clip0_448_17538)">
<g id="Layer_1-2">
<path id="Vector" d="M121.176 18.1214C123.117 21.8705 125.057 25.6193 127 29.3723C126.689 29.463 122.069 29.4956 121.23 29.4167C119.502 26.0702 117.765 22.7037 116.031 19.3443C114.906 19.3855 113.808 19.426 112.654 19.4684C112.648 19.6338 112.638 19.7976 112.638 19.9614C112.637 22.9465 112.638 25.9319 112.636 28.917C112.636 29.0832 112.621 29.2497 112.613 29.4297H107.36C107.352 29.2588 107.339 29.095 107.339 28.9312C107.338 25.8934 107.341 22.8557 107.337 19.8184C107.329 13.5996 107.317 7.38121 107.306 1.1624C107.306 0.970312 107.306 0.77822 107.306 0.56531C107.479 0.549989 107.594 0.530741 107.71 0.531134C109.966 0.538205 112.222 0.519742 114.477 0.564524C116.42 0.603414 118.337 0.857571 120.184 1.49709C121.283 1.87734 122.3 2.40216 123.192 3.15009C124.526 4.26964 125.336 5.70149 125.703 7.37374C126.097 9.17641 126.095 10.9862 125.652 12.7841C125.093 15.0523 123.751 16.7241 121.668 17.8217C121.528 17.8955 121.388 17.9706 121.248 18.0456C121.238 18.0515 121.23 18.0641 121.176 18.121L121.176 18.1214ZM112.66 14.223C113.061 14.223 113.417 14.2242 113.772 14.223C114.943 14.2183 116.104 14.1358 117.242 13.8416C118.045 13.6338 118.801 13.3242 119.44 12.7853C120.38 11.9918 120.716 10.9583 120.669 9.76919C120.619 8.52982 120.084 7.5619 119.035 6.87446C118.488 6.51542 117.885 6.2813 117.253 6.11945C115.813 5.75098 114.344 5.70817 112.869 5.74666C112.805 5.74823 112.743 5.77416 112.66 5.79341V14.2242V14.223Z" fill="white"/>
<path id="Vector_2" d="M81.1867 0.556617H86.4676V11.703C86.497 11.7136 86.5265 11.7242 86.556 11.7348C86.6416 11.6268 86.7292 11.5203 86.8124 11.4104C89.4602 7.90479 92.1104 4.4008 94.7495 0.888554C94.9426 0.631646 95.1361 0.518906 95.4674 0.521656C97.2719 0.538154 99.0768 0.529512 100.881 0.529512C101.013 0.529512 101.144 0.529512 101.258 0.529512C101.281 0.56958 101.289 0.579401 101.293 0.590793C101.298 0.602577 101.301 0.615541 101.299 0.627718C101.298 0.640288 101.293 0.653645 101.287 0.664644C101.266 0.698427 101.246 0.731817 101.223 0.763635C98.1005 5.04581 94.9784 9.3276 91.8564 13.6098C91.8488 13.62 91.8468 13.6341 91.8225 13.699C95.3412 18.9035 98.8781 24.1355 102.451 29.4202C102.269 29.4308 102.144 29.4445 102.02 29.4449C100.215 29.4465 98.4103 29.4371 96.6058 29.454C96.2848 29.4571 96.108 29.3467 95.9372 29.0914C92.9227 24.5774 89.8998 20.0694 86.8781 15.5605C86.7769 15.4097 86.6734 15.26 86.5755 15.1159C86.5309 15.1335 86.5173 15.1371 86.5066 15.1438C86.4966 15.15 86.4847 15.1595 86.4823 15.1693C86.4743 15.2074 86.4644 15.2463 86.4644 15.2848C86.4584 19.9712 86.4532 24.6576 86.4477 29.3444C86.4477 29.3565 86.4401 29.3687 86.4361 29.3809C86.1574 29.4606 81.6887 29.4815 81.1851 29.4013V0.556617H81.1867Z" fill="white"/>
<path id="Vector_3" d="M44.8921 15.031H50.6237C50.7408 18.0303 51.9317 20.4929 54.3311 22.3333C56.1384 23.7199 58.2116 24.35 60.4979 24.2463C65.4925 24.0204 69.3743 19.9547 69.4559 15.1399C69.5423 10.0591 65.3958 5.75685 60.14 5.69086C60.0468 5.42688 60.0106 0.741268 60.1037 0.0090436C62.0137 -0.0109904 63.8569 0.34373 65.6295 1.04178C68.7615 2.27485 71.2254 4.31165 73.002 7.13998C76.5346 12.7644 75.8577 20.0549 71.3572 25.0013C66.8583 29.9458 59.5726 31.3863 53.4921 28.5037C47.0581 25.4538 44.7348 19.2405 44.8925 15.0306L44.8921 15.031Z" fill="white"/>
<path id="Vector_4" d="M0 23.7988C1.59069 22.8764 3.14275 21.9768 4.70954 21.0686C4.8055 21.2199 4.88394 21.3393 4.9588 21.4611C5.40793 22.1909 5.91082 22.8799 6.53873 23.4727C7.2642 24.1574 8.09 24.6677 9.10294 24.7977C10.3683 24.96 11.5055 24.6755 12.4189 23.7481C13.0982 23.0579 13.2881 22.2444 12.9958 21.3228C12.8135 20.7481 12.5013 20.2441 12.0725 19.8281C11.4394 19.2141 10.792 18.6107 10.1163 18.0435C8.76251 16.9067 7.37449 15.8099 6.02151 14.6727C5.09218 13.8913 4.2182 13.0487 3.42664 12.128C2.58332 11.1475 1.91718 10.0617 1.6082 8.80623C1.02091 6.42179 1.60542 4.32096 3.30839 2.53832C4.85965 0.914388 6.79515 0.110277 9.04202 0.0104993C11.4943 -0.0983131 13.666 0.629983 15.5732 2.14707C16.3914 2.79798 17.138 3.52196 17.8455 4.28718C18.0952 4.55705 18.3468 4.82535 18.6343 5.13411C17.2312 6.32437 15.8396 7.5052 14.4133 8.71509C14.2708 8.5289 14.1438 8.36548 14.0199 8.2001C13.4983 7.50284 12.9337 6.84446 12.2529 6.29137C11.5871 5.75084 10.8557 5.3372 9.99006 5.20796C9.27814 5.1019 8.58413 5.1671 7.94586 5.52536C6.8493 6.14052 6.58213 7.242 7.31038 8.25824C7.568 8.61807 7.88853 8.9445 8.22458 9.23716C9.35777 10.2251 10.5053 11.1974 11.658 12.1633C12.7398 13.0699 13.8447 13.9503 14.9214 14.8628C15.9021 15.694 16.7896 16.6207 17.451 17.7214C19.0074 20.3128 19.0755 22.9915 17.7169 25.6639C16.872 27.3259 15.486 28.5036 13.7412 29.1848C10.8473 30.3145 7.94029 30.2713 5.07228 29.0477C4.31297 28.7236 3.63329 28.2648 3.00777 27.7302C1.73522 26.6424 0.798329 25.3056 0 23.7988Z" fill="white"/>
<path id="Vector_5" d="M29.3806 5.75331H24.1164C24.0152 5.43865 23.9885 1.10462 24.0722 0.5967C24.3792 0.509101 39.5888 0.497316 39.9854 0.58963V5.75409H34.6706V29.417H29.381V5.75331H29.3806Z" fill="white"/>
</g>
</g>
<defs>
<clipPath id="clip0_448_17538">
<rect width="127" height="30" fill="white"/>
</clipPath>
</defs>
</svg>
